<?xml version="1.0" encoding="UTF-8"?>
<svg id="Capa_1" data-name="Capa 1" xmlns="http://www.w3.org/2000/svg" viewBox="0 0 310.72 305.55">
  <defs>
    <style>
      .cls-1 {
        fill: #fff;
        fill-rule: evenodd;
      }
    </style>
  </defs>
  <path class="cls-1" d="M155.49,0C69.52,0,0,70.02,0,156.64c0,69.24,44.54,127.86,106.32,148.6,7.72,1.56,10.55-3.37,10.55-7.52,0-3.62-.25-16.07-.25-29.04-43.25,9.34-52.26-18.67-52.26-18.67-2.18-5.69-4.69-10.06-7.1-13.37l-4.35,19.34c-.43,1.38-1.81,2.23-3.24,2l-3.65-.57c-1.43-.22-2.48-1.44-2.47-2.89l1.85-28.56c-8.19-6.16-2.86-7.79.53-8.22l.32-4.96c-.4-.41-.77-.85-1.11-1.32-1.58-2.17-2.47-4.77-2.52-7.45,0-.04,0-.08,0-.13.06-.41.44-.68.84-.62l24.13,3.76s.08.02.13.03c.38.13.58.55.45.93-.86,2.53-2.49,4.75-4.66,6.33-.46.34-.95.64-1.45.92l-1.46,6.51c7.56,4.78,11.47,11.91,11.47,11.91,13.9,23.86,36.3,17.12,45.31,12.97,1.28-10.11,5.41-17.12,9.78-21.01-34.5-3.63-70.79-17.12-70.79-77.29,0-16.29,5.59-29.75,14.55-40.4.83-.99,1.11-2.32.71-3.55-1.95-5.92-5.22-20.64,2.24-39.56,0,0,13.13-4.15,42.74,16.08,12.67-3.43,25.74-5.17,38.87-5.19,13.13,0,26.52,1.82,38.87,5.19,29.61-20.23,42.74-16.08,42.74-16.08,7.45,18.87,4.21,33.55,2.26,39.51-.4,1.23-.16,2.58.68,3.55,9.19,10.66,14.57,24.14,14.57,40.45,0,60.17-36.3,73.39-71.05,77.29,5.66,4.93,10.55,14.26,10.55,29.04,0,21.01-.25,37.86-.25,43.05,0,4.15,2.83,9.08,10.55,7.53,61.78-20.75,106.31-79.37,106.31-148.6C310.98,70.02,241.21,0,155.49,0ZM60.03,191.27c5.2,1.79,8.75,6.63,8.87,12.14,0,.4-.31.74-.72.74-.04,0-.08,0-.13,0l-24.13-3.75c-.4-.06-.67-.44-.61-.84,0-.04.02-.08.03-.13,2.35-6.86,9.82-10.51,16.68-8.16Z"/>
</svg>