<?xml version="1.0" encoding="UTF-8"?>
<svg xmlns="http://www.w3.org/2000/svg" version="1.1" viewBox="0 0 422.5 499.8">
  <defs>
    <style>
      .cls-1 {
        fill: #fff;
      }
    </style>
  </defs>
  <!-- Generator: Adobe Illustrator 28.6.0, SVG Export Plug-In . SVG Version: 1.2.0 Build 709)  -->
  <g>
    <g id="Capa_1">
      <path class="cls-1" d="M309.8,499.6c-33.2,0-64.5-16.6-98.7-35.2-45.9,25.4-86,45.9-132.8,29.3-26.4-8.8-58.6-32.2-72.3-72.3h0c-4.9-13.7-10.7-42,0-72.3,13.7-38.1,47.9-57.6,65.4-68.4l3.9-2c23.4-13.7,44-25.4,62.5-36.1,18.6-10.7,34.2-20.5,48.8-28.3-59.6-37.1-76.2-52.7-84-81.1-9.8-37.1,4.9-82.1,36.1-108.4,39.1-33.2,105.5-33.2,144.6,0,31.3,26.4,45.9,71.3,36.1,108.4-7.8,28.3-24.4,44-84,81.1,14.7,8.8,30.3,17.6,48.8,28.3s39.1,23.4,62.5,36.1l3.9,2c18.6,10.7,51.8,30.3,65.4,68.4,11.7,32.2,3.9,61.5,0,72.3-13.7,39.1-45.9,62.5-72.3,72.3-11.7,3.9-22.5,5.9-33.2,5.9h-1ZM236.6,449.8c36.1,19.5,66.4,31.3,98.7,20.5,20.5-6.8,45.9-25.4,56.7-56.7,2.9-8.8,8.8-31.3,0-55.7-10.7-29.3-38.1-45.9-54.7-55.7l-3.9-2c-22.5-13.7-44-25.4-61.5-36.1-23.4-13.7-43-25.4-59.6-35.2-16.6,9.8-37.1,21.5-59.6,35.2-18.6,10.7-39.1,23.4-61.5,36.1l-3.9,2c-16.6,9.8-44,25.4-54.7,55.7-8.8,24.4-2.9,46.9,0,55.7h0c10.7,30.3,36.1,48.8,56.7,56.7,32.2,10.7,62.5-1,98.7-20.5-39.1-22.5-79.1-50.8-83-94.7-2-25.4,6.8-66.4,41-77.2,22.5-6.8,48.8,2.9,68.4,23.4,18.6-20.5,45.9-30.3,68.4-23.4,34.2,10.7,43,51.8,41,77.2-3.9,44-44,72.3-83,94.7h-3.9ZM158.4,300.4c-2.9,0-4.9,0-7.8,1-18.6,5.9-24.4,33.2-23.4,50.8,2.9,37.1,44.9,61.5,84,83,39.1-21.5,80.1-45.9,84-83,2-17.6-4.9-44.9-23.4-50.8-15.6-4.9-37.1,6.8-49.8,26.4l-10.7,17.6-10.7-17.6c-10.7-16.6-27.4-28.3-42-28.3v1ZM210.2,23.9c-20.5,0-41,6.8-55.7,19.5-20.5,17.6-36.1,51.8-28.3,84,5.9,21.5,20.5,35.2,84,73.3,63.5-38.1,78.1-51.8,84-73.3,8.8-32.2-7.8-66.4-28.3-84-14.7-12.7-35.2-19.5-55.7-19.5Z"/>
    </g>
  </g>
</svg>