<?xml version="1.0" encoding="UTF-8"?>
<svg xmlns="http://www.w3.org/2000/svg" version="1.1" viewBox="0 0 144.5 51.9">
  <defs>
    <style>
      .cls-1 {
        fill: #fff;
      }
    </style>
  </defs>
  <!-- Generator: Adobe Illustrator 28.6.0, SVG Export Plug-In . SVG Version: 1.2.0 Build 709)  -->
  <g>
    <g id="Capa_1">
      <g>
        <path class="cls-1" d="M61.4,36.5h-10.2c1.5-1.2,2.4-3,2.4-5.5v-8c0-3.5-.6-5.1-2.3-5.8l7.9-2.3v16c0,2.5.8,4.4,2.3,5.6ZM56.2,6.2c2.2,0,3.7,1.4,3.7,3.4s-1.5,3.5-3.7,3.5-3.8-1.4-3.8-3.5,1.5-3.4,3.8-3.4Z"/>
        <path class="cls-1" d="M76.6,36.5h-10.2c1.5-1.2,2.4-3,2.4-5.5V14.2c0-3.5-.6-5.1-2.3-5.8l7.9-2.3v21.5l8-6.8c1.8-1.6,1.9-3.8.7-5.7h7.7c-2.3,1.3-4.9,3-7.6,5.3l-2.2,1.9,4.5,9.7c1.2,2.5,2.2,3.7,3.5,3.7s2.3-1.3,2.2-3.5h.1c.2,2.9-1.5,4.6-4.9,4.6s-4.2-1.1-5.6-3.7l-3.6-7.6-2.8,2.4v2.9c0,2.5.8,4.4,2.3,5.6Z"/>
        <path class="cls-1" d="M104.8,36.5h-10.2c1.5-1.2,2.4-3,2.4-5.5v-8c0-3.5-.6-5.1-2.3-5.8l7.9-2.3v16c0,2.5.8,4.4,2.3,5.6ZM99.6,6.2c2.2,0,3.7,1.4,3.7,3.4s-1.5,3.5-3.7,3.5-3.8-1.4-3.8-3.5,1.5-3.4,3.8-3.4Z"/>
      </g>
      <path class="cls-1" d="M17.4,44.7s0,0,0,0h0,0Z"/>
      <g>
        <path class="cls-1" d="M54.7,43h-1.5v5.8h-.8v-5.8h-.9v-.7h.9v-.5c0-.7.2-1.2.5-1.6s1-.5,1.8-.5v.7c-.5,0-.9.1-1.1.3-.2.2-.3.6-.3,1v.5h1.5v.7Z"/>
        <path class="cls-1" d="M56,40.9c-.1-.1-.2-.3-.2-.4s0-.3.2-.4c.1-.1.3-.2.4-.2s.3,0,.4.2c.1.1.2.3.2.4s0,.3-.2.4c-.1.1-.3.2-.4.2s-.3,0-.4-.2ZM56.9,42.3v6.6h-.8v-6.6h.8Z"/>
        <path class="cls-1" d="M63.8,42.9c.5.5.7,1.2.7,2.1v3.8h-.8v-3.7c0-.7-.2-1.3-.5-1.6-.4-.4-.8-.6-1.5-.6s-1.1.2-1.5.6-.6,1-.6,1.8v3.6h-.8v-6.6h.8v1.1c.2-.4.5-.7.9-.9.4-.2.8-.3,1.3-.3.8,0,1.4.2,1.9.7Z"/>
        <path class="cls-1" d="M66.4,43.8c.3-.5.6-.9,1.1-1.2.5-.3,1-.4,1.6-.4s1.1.1,1.6.4c.5.3.8.6,1,1.1v-3.7h.8v8.9h-.8v-1.5c-.2.5-.5.8-1,1.1s-1,.4-1.6.4-1.1-.1-1.6-.4c-.5-.3-.8-.7-1.1-1.2-.3-.5-.4-1.1-.4-1.8s.1-1.3.4-1.8ZM71.4,44.2c-.2-.4-.5-.7-.9-.9s-.8-.3-1.2-.3-.9.1-1.2.3c-.4.2-.7.5-.9.9-.2.4-.3.9-.3,1.4s.1,1,.3,1.4.5.7.9.9c.4.2.8.3,1.2.3s.9-.1,1.2-.3.7-.5.9-.9c.2-.4.3-.9.3-1.4s-.1-1-.3-1.4Z"/>
        <path class="cls-1" d="M83.2,42.3l-3.9,9.6h-.9l1.3-3.1-2.7-6.5h.9l2.2,5.6,2.2-5.6h.9Z"/>
        <path class="cls-1" d="M85.5,48.5c-.5-.3-.9-.7-1.2-1.2s-.4-1.1-.4-1.8.1-1.3.4-1.8c.3-.5.7-.9,1.2-1.2.5-.3,1.1-.4,1.7-.4s1.2.1,1.7.4c.5.3.9.7,1.2,1.2.3.5.4,1.1.4,1.8s-.1,1.3-.4,1.8-.7.9-1.2,1.2c-.5.3-1.1.4-1.7.4s-1.2-.1-1.7-.4ZM88.4,47.9c.4-.2.7-.5.9-.9.2-.4.3-.9.3-1.5s-.1-1.1-.3-1.5c-.2-.4-.5-.7-.9-.9s-.8-.3-1.2-.3-.8,0-1.2.3-.7.5-.9.9c-.2.4-.3.9-.3,1.5s.1,1.1.3,1.5c.2.4.5.7.9.9s.8.3,1.2.3.8,0,1.2-.3Z"/>
        <path class="cls-1" d="M97.7,42.3v6.6h-.8v-1.2c-.2.4-.5.7-.9.9-.4.2-.8.3-1.3.3-.8,0-1.4-.2-1.9-.7-.5-.5-.7-1.2-.7-2.1v-3.8h.8v3.7c0,.7.2,1.3.5,1.6.4.4.8.6,1.5.6s1.1-.2,1.5-.6c.4-.4.6-1,.6-1.8v-3.6h.8Z"/>
        <path class="cls-1" d="M101.3,42.5c.4-.2.8-.3,1.4-.3v.9h-.2c-.6,0-1.1.2-1.5.5-.4.3-.6.9-.6,1.6v3.7h-.8v-6.6h.8v1.2c.2-.4.5-.7.8-.9Z"/>
        <path class="cls-1" d="M107.3,43.8c.3-.5.6-.9,1.1-1.2.5-.3,1-.4,1.6-.4s1.5.2,2,.6.9.9,1,1.6h-.9c-.1-.5-.4-.8-.7-1.1-.4-.3-.8-.4-1.4-.4s-.8,0-1.2.3c-.4.2-.6.5-.8.9-.2.4-.3.9-.3,1.5s.1,1.1.3,1.5c.2.4.5.7.8.9.4.2.7.3,1.2.3s1-.1,1.4-.4c.4-.3.6-.6.7-1.1h.9c-.2.7-.5,1.2-1,1.6-.5.4-1.2.6-2,.6s-1.2-.1-1.6-.4c-.5-.3-.9-.7-1.1-1.2-.3-.5-.4-1.1-.4-1.8s.1-1.3.4-1.8Z"/>
        <path class="cls-1" d="M120.5,45.9h-5.4c0,.5.1.9.4,1.3.2.4.5.6.9.8.4.2.7.3,1.2.3s1-.1,1.4-.4c.4-.3.6-.6.7-1.1h.9c-.2.6-.5,1.2-1,1.6-.5.4-1.2.6-2,.6s-1.2-.1-1.7-.4c-.5-.3-.9-.7-1.1-1.2-.3-.5-.4-1.1-.4-1.8s.1-1.3.4-1.8c.3-.5.7-.9,1.1-1.2.5-.3,1-.4,1.7-.4s1.2.1,1.6.4c.5.3.8.6,1.1,1.1s.4,1,.4,1.5,0,.5,0,.7ZM119.4,44c-.2-.3-.5-.6-.8-.8-.4-.2-.7-.3-1.2-.3-.6,0-1.2.2-1.6.6-.4.4-.7,1-.7,1.7h4.6c0-.5,0-.9-.3-1.2Z"/>
        <path class="cls-1" d="M127,42.9c.5.5.7,1.2.7,2.1v3.8h-.8v-3.7c0-.7-.2-1.3-.5-1.6-.4-.4-.8-.6-1.5-.6s-1.1.2-1.5.6-.6,1-.6,1.8v3.6h-.8v-6.6h.8v1.1c.2-.4.5-.7.9-.9.4-.2.8-.3,1.3-.3.8,0,1.4.2,1.9.7Z"/>
        <path class="cls-1" d="M130.7,43v4.1c0,.4,0,.7.2.8.2.2.4.2.8.2h.8v.7h-.9c-.6,0-1-.1-1.3-.4s-.4-.7-.4-1.4v-4.1h-.9v-.7h.9v-1.6h.9v1.6h1.8v.7h-1.8Z"/>
        <path class="cls-1" d="M139.8,45.9h-5.4c0,.5.1.9.4,1.3.2.4.5.6.9.8.4.2.7.3,1.2.3s1-.1,1.4-.4c.4-.3.6-.6.7-1.1h.9c-.2.6-.5,1.2-1,1.6-.5.4-1.2.6-2,.6s-1.2-.1-1.7-.4c-.5-.3-.9-.7-1.1-1.2-.3-.5-.4-1.1-.4-1.8s.1-1.3.4-1.8c.3-.5.7-.9,1.1-1.2.5-.3,1-.4,1.7-.4s1.2.1,1.6.4c.5.3.8.6,1.1,1.1s.4,1,.4,1.5,0,.5,0,.7ZM138.7,44c-.2-.3-.5-.6-.8-.8-.4-.2-.7-.3-1.2-.3-.6,0-1.2.2-1.6.6-.4.4-.7,1-.7,1.7h4.6c0-.5,0-.9-.3-1.2Z"/>
        <path class="cls-1" d="M143.1,42.5c.4-.2.8-.3,1.4-.3v.9h-.2c-.6,0-1.1.2-1.5.5-.4.3-.6.9-.6,1.6v3.7h-.8v-6.6h.8v1.2c.2-.4.5-.7.8-.9Z"/>
      </g>
      <path class="cls-1" d="M31.7,51.3c-3.4,0-6.6-1.7-10.1-3.6-4.7,2.6-8.8,4.7-13.6,3-2.7-.9-6-3.3-7.4-7.4h0c-.5-1.4-1.1-4.3,0-7.4,1.4-3.9,4.9-5.9,6.7-7l.4-.2c2.4-1.4,4.5-2.6,6.4-3.7,1.9-1.1,3.5-2.1,5-2.9-6.1-3.8-7.8-5.4-8.6-8.3-1-3.8.5-8.4,3.7-11.1,4-3.4,10.8-3.4,14.8,0,3.2,2.7,4.7,7.3,3.7,11.1-.8,2.9-2.5,4.5-8.6,8.3,1.5.9,3.1,1.8,5,2.9,1.9,1.1,4,2.4,6.4,3.7l.4.2c1.9,1.1,5.3,3.1,6.7,7,1.2,3.3.4,6.3,0,7.4-1.4,4-4.7,6.4-7.4,7.4-1.2.4-2.3.6-3.4.6ZM24.2,46.2c3.7,2,6.8,3.2,10.1,2.1,2.1-.7,4.7-2.6,5.8-5.8.3-.9.9-3.2,0-5.7-1.1-3-3.9-4.7-5.6-5.7l-.4-.2c-2.3-1.4-4.5-2.6-6.3-3.7-2.4-1.4-4.4-2.6-6.1-3.6-1.7,1-3.8,2.2-6.1,3.6-1.9,1.1-4,2.4-6.3,3.7l-.4.2c-1.7,1-4.5,2.6-5.6,5.7-.9,2.5-.3,4.8,0,5.7h0c1.1,3.1,3.7,5,5.8,5.8,3.3,1.1,6.4-.1,10.1-2.1-4-2.3-8.1-5.2-8.5-9.7-.2-2.6.7-6.8,4.2-7.9,2.3-.7,5,.3,7,2.4,1.9-2.1,4.7-3.1,7-2.4,3.5,1.1,4.4,5.3,4.2,7.9-.4,4.5-4.5,7.4-8.5,9.7ZM16.2,30.9c-.3,0-.5,0-.8.1-1.9.6-2.5,3.4-2.4,5.2.3,3.8,4.6,6.3,8.6,8.5,4-2.2,8.2-4.7,8.6-8.5.2-1.8-.5-4.6-2.4-5.2-1.6-.5-3.8.7-5.1,2.7l-1.1,1.8-1.1-1.8c-1.1-1.7-2.8-2.9-4.3-2.9ZM21.5,2.6c-2.1,0-4.2.7-5.7,2-2.1,1.8-3.7,5.3-2.9,8.6.6,2.2,2.1,3.6,8.6,7.5,6.5-3.9,8-5.3,8.6-7.5.9-3.3-.8-6.8-2.9-8.6-1.5-1.3-3.6-2-5.7-2Z"/>
    </g>
  </g>
</svg>